<?xml version="1.0" encoding="UTF-8"?>
<svg version="1.1" xmlns="http://www.w3.org/2000/svg" width="575" height="549">
<path d="M0 0 C1.59134766 1.16789062 1.59134766 1.16789062 3.21484375 2.359375 C9.62721936 7.14312153 15.64243549 12.23828178 21.50390625 17.69140625 C23.70865156 19.73053689 25.95831814 21.68520787 28.25 23.625 C32.23854984 27.10488862 35.60814325 30.94648741 39 35 C39.76183594 35.87398438 40.52367187 36.74796875 41.30859375 37.6484375 C47.91707174 45.33942749 53.64872247 53.39015587 59 62 C59.47727539 62.76425293 59.95455078 63.52850586 60.44628906 64.31591797 C89.83133707 111.95415377 99.16735281 170.75155568 86.65673828 225.31542969 C77.86563518 261.25110616 60.53766286 294.38560888 35.30859375 321.50390625 C33.26946311 323.70865156 31.31479213 325.95831814 29.375 328.25 C25.88459204 332.23903767 22.08885363 335.63460862 18 339 C17.21858643 339.6499292 17.21858643 339.6499292 16.42138672 340.31298828 C-6.10608989 358.9919946 -30.9691151 373.21911091 -59 382 C-59.77939941 382.24685547 -60.55879883 382.49371094 -61.36181641 382.74804688 C-101.79351944 395.23647023 -146.69858732 394.47380581 -187 382 C-187.67546875 381.79713379 -188.3509375 381.59426758 -189.046875 381.38525391 C-215.44890244 373.32009969 -240.53370268 359.49612215 -261 341 C-262.39425488 339.78984568 -263.78988635 338.58127369 -265.1875 337.375 C-266.45883301 336.25056471 -267.72964223 335.12553698 -269 334 C-269.78890625 333.31550781 -270.5778125 332.63101562 -271.390625 331.92578125 C-311.35051578 296.80765638 -333.59353303 243.41784802 -337.75 191.125 C-337.85586855 188.75089779 -337.9384941 186.37566548 -338 184 C-338.02578125 183.32469238 -338.0515625 182.64938477 -338.078125 181.95361328 C-339.99906603 128.63549392 -320.65271201 74.70363119 -284.8125 35.1875 C-283.98234375 34.29546875 -283.1521875 33.4034375 -282.296875 32.484375 C-280.3204205 30.34657727 -278.43445344 28.166016 -276.5625 25.9375 C-264.18523094 11.816551 -248.17468372 0.360071 -232 -9 C-230.92878906 -9.65355469 -229.85757813 -10.30710937 -228.75390625 -10.98046875 C-204.82088937 -25.28494242 -177.49996635 -33.27048393 -150 -37 C-148.98292969 -37.15142456 -148.98292969 -37.15142456 -147.9453125 -37.3059082 C-97.41123101 -44.03935716 -41.0608369 -30.36230734 0 0 Z M-196 -18 C-192.51611526 -7.57890618 -188.6254372 2.67412906 -184.56652832 12.88323975 C-184.02206252 14.25303234 -183.47933777 15.62351824 -182.93835449 16.99468994 C-182.16760736 18.94535281 -181.38966235 20.8929805 -180.609375 22.83984375 C-179.9282666 24.54708618 -179.9282666 24.54708618 -179.23339844 26.28881836 C-178.15582044 29.07806283 -178.15582044 29.07806283 -176 31 C-175.35675781 30.16339844 -174.71351563 29.32679687 -174.05078125 28.46484375 C-168.44615909 21.22751136 -162.65525927 14.21072863 -156.62597656 7.32348633 C-153.05075686 3.2330394 -149.59655735 -0.92375788 -146.23828125 -5.1953125 C-144.36310536 -7.54500934 -142.46251768 -9.86637178 -140.54296875 -12.1796875 C-139.91962646 -12.93137207 -139.29628418 -13.68305664 -138.65405273 -14.45751953 C-137.41232747 -15.95255739 -136.16844915 -17.44581041 -134.92211914 -18.93701172 C-131.69335568 -22.82918271 -128.71213782 -26.7303969 -126 -31 C-149.44192729 -32.36114416 -174.29838802 -26.5712249 -196 -18 Z M-119 -31 C-116.41751178 -26.29129357 -113.11836658 -22.34955897 -109.6875 -18.25 C-108.42435527 -16.72926957 -107.16133807 -15.2084332 -105.8984375 -13.6875 C-105.25229492 -12.91148438 -104.60615234 -12.13546875 -103.94042969 -11.3359375 C-101.47236186 -8.36481609 -99.02193199 -5.3794496 -96.57177734 -2.39355469 C-91.34017927 3.98077657 -86.06416508 10.31188099 -80.71044922 16.58398438 C-77.45000195 20.4203826 -74.35085912 24.35630612 -71.33984375 28.390625 C-70.07372465 30.13032784 -70.07372465 30.13032784 -68 31 C-67.70867187 30.2565332 -67.41734375 29.51306641 -67.1171875 28.74707031 C-61.1313305 13.47654677 -55.11872267 -1.78208804 -49 -17 C-66.77947391 -28.85298261 -98.20159416 -31.70903656 -119 -31 Z M-123 -27 C-129.26000069 -19.74433084 -135.48580453 -12.47149226 -141.53125 -5.03515625 C-144.63329393 -1.2214092 -147.75204088 2.57837099 -150.875 6.375 C-151.4728833 7.10227295 -152.0707666 7.8295459 -152.68676758 8.57885742 C-156.43683349 13.13087536 -160.23223998 17.64039012 -164.0625 22.125 C-167.60449803 26.2752135 -170.9476122 30.47404567 -174 35 C-164.97824398 39.69475883 -155.76449658 43.81461907 -146.41577148 47.80639648 C-144.03941967 48.82236762 -141.66711591 49.84741106 -139.29492188 50.87304688 C-137.77106723 51.52658732 -136.24698683 52.17960165 -134.72265625 52.83203125 C-134.02052505 53.13615433 -133.31839386 53.4402774 -132.59498596 53.75361633 C-126.17478046 56.66848013 -126.17478046 56.66848013 -119.41064453 56.26245117 C-118.49395996 55.86002197 -117.57727539 55.45759277 -116.6328125 55.04296875 C-115.07216064 54.36971558 -115.07216064 54.36971558 -113.47998047 53.68286133 C-112.37283691 53.18939209 -111.26569336 52.69592285 -110.125 52.1875 C-108.98562988 51.69209717 -107.84625977 51.19669434 -106.67236328 50.6862793 C-104.2992851 49.65295844 -101.92870489 48.61388354 -99.56054688 47.56933594 C-96.10342134 46.04558368 -92.63935397 44.53908463 -89.171875 43.0390625 C-83.77619093 40.7042103 -78.38601703 38.35705976 -73 36 C-73 31.71544043 -75.47263885 29.49615055 -78.0625 26.3125 C-78.56910156 25.67892578 -79.07570313 25.04535156 -79.59765625 24.39257812 C-82.67624699 20.56397357 -85.84889755 16.84115741 -89.12890625 13.18359375 C-91.66716051 10.22141394 -94.0447029 7.14260282 -96.4375 4.0625 C-100.16556184 -0.73280099 -104.00256216 -5.35015025 -108.09375 -9.84375 C-110.88367769 -12.99956984 -113.46094009 -16.31388491 -116.04296875 -19.640625 C-118.21594871 -22.26034535 -120.56306494 -24.62619797 -123 -27 Z M-257.125 17.8125 C-257.69436279 18.28099365 -258.26372559 18.7494873 -258.8503418 19.23217773 C-261.46771493 21.44730953 -262.89474486 22.68423458 -264 26 C-254.06436369 26.9158897 -244.12846205 27.82883978 -234.19221306 28.73806 C-229.57820359 29.16035933 -224.96429086 29.58366258 -220.35058594 30.00927734 C-215.89636594 30.42014208 -211.44190942 30.82834721 -206.98727798 31.23472595 C-205.28958609 31.39006776 -203.59198092 31.54636031 -201.8944664 31.70362854 C-199.5130389 31.92409336 -197.13132279 32.14114591 -194.74951172 32.35742188 C-194.05107651 32.42287704 -193.3526413 32.48833221 -192.63304138 32.55577087 C-188.74173654 32.90507898 -184.9064156 33.06236389 -181 33 C-187.17447859 16.6007488 -193.40375534 0.23545606 -200 -16 C-218.06964893 -16 -243.92595322 6.84366809 -257.125 17.8125 Z M-45 -16 C-48.67506456 -7.00340943 -52.34072351 1.99697926 -56 11 C-56.43103027 12.05912598 -56.86206055 13.11825195 -57.30615234 14.20947266 C-58.43713607 16.9922698 -59.56327507 19.77696681 -60.6875 22.5625 C-61.02587891 23.39362305 -61.36425781 24.22474609 -61.71289062 25.08105469 C-63.39110029 28.91805711 -63.39110029 28.91805711 -64 33 C-45.08430457 31.66252804 -26.1975967 30.08811358 -7.3125 28.375 C-4.73764776 28.14303426 -2.16277802 27.91126265 0.41210938 27.6796875 C6.60827516 27.12201553 12.80422547 26.56200126 19 26 C18.04374296 24.87263801 17.08582175 23.74668747 16.12719727 22.62133789 C15.59393326 21.99417374 15.06066925 21.36700958 14.51124573 20.72084045 C0.42170679 4.67722283 -24.8727488 -9.58151688 -45 -16 Z M-266 30 C-266.10444709 40.47639348 -265.84134394 50.85625345 -265.16015625 61.31640625 C-265.0725146 62.7116425 -264.98523736 64.10690168 -264.89830017 65.50218201 C-264.71729194 68.39041533 -264.53297478 71.27841011 -264.34594727 74.16625977 C-264.10746116 77.85063936 -263.87597399 81.53541826 -263.6467371 85.22038364 C-263.4679192 88.08680752 -263.28623025 90.9530436 -263.10360527 93.81922722 C-262.97560153 95.83258037 -262.84935989 97.84604531 -262.72315979 99.85951233 C-262.60314857 101.70324684 -262.60314857 101.70324684 -262.48071289 103.58422852 C-262.41187393 104.65737808 -262.34303497 105.73052765 -262.27210999 106.8361969 C-261.97859333 110.24889381 -261.51347521 113.61400455 -261 117 C-253.43299837 114.65630922 -246.33399702 111.58294315 -239.125 108.3125 C-236.89938671 107.30649115 -234.67279896 106.30263573 -232.4453125 105.30078125 C-231.27983887 104.75736084 -230.11436523 104.21394043 -228.91357422 103.65405273 C-226.07151562 102.38394063 -223.23310373 101.44131563 -220.24658203 100.56665039 C-211.62051045 97.85655661 -205.7989192 95.19779277 -201.42098999 86.97898865 C-199.26640936 82.33453264 -197.42366541 77.60374495 -195.625 72.8125 C-194.8446679 70.88487845 -194.05823643 68.95971442 -193.265625 67.03710938 C-191.09454403 61.72167473 -189.03634766 56.3681706 -187 51 C-186.4527464 49.57943357 -185.90434714 48.15930765 -185.35449219 46.73974609 C-184.22880211 43.82928111 -183.11007938 40.91644389 -182 38 C-183.94404801 36.05595199 -187.52947221 36.47351977 -190.19433594 36.24389648 C-190.947229 36.17547546 -191.70012207 36.10705444 -192.47583008 36.03656006 C-194.97830321 35.8103186 -197.48130357 35.59060918 -199.984375 35.37109375 C-201.71977644 35.21591122 -203.45514803 35.06039442 -205.19049072 34.90455627 C-208.83541041 34.57819042 -212.48058289 34.25486537 -216.12597656 33.93383789 C-220.79485129 33.5225825 -225.46317755 33.10546011 -230.13134384 32.68624783 C-233.71885389 32.36446387 -237.30656823 32.0450094 -240.89435577 31.72633553 C-242.6151627 31.57336305 -244.33592227 31.41985694 -246.056633 31.2658062 C-248.46692554 31.05053387 -250.87745913 30.8382011 -253.28808594 30.62670898 C-253.99789612 30.56282486 -254.7077063 30.49894073 -255.43902588 30.43312073 C-258.97080935 30.12647885 -262.45473231 29.93118666 -266 30 Z M8.41162109 30.61083984 C7.29121681 30.70843346 7.29121681 30.70843346 6.1481781 30.80799866 C3.68969359 31.02303736 1.23154319 31.24161305 -1.2265625 31.4609375 C-2.48832872 31.57303495 -2.48832872 31.57303495 -3.77558517 31.687397 C-8.22074715 32.08257655 -12.66564369 32.48060614 -17.11035156 32.88085938 C-21.70426327 33.29394978 -26.29900391 33.69693358 -30.89400673 34.09767723 C-34.42721065 34.40769857 -37.95970399 34.72529669 -41.49204636 35.04497147 C-43.18628935 35.19694419 -44.88079446 35.34602323 -46.57555008 35.49216843 C-48.94130685 35.69687173 -51.30585466 35.91228701 -53.67041016 36.13037109 C-54.72245888 36.21776802 -54.72245888 36.21776802 -55.79576111 36.30693054 C-59.29124822 36.64113526 -61.00808656 37.00539104 -64 39 C-63.31439462 40.60856179 -62.62868116 42.21707757 -61.9425354 43.82540894 C-61.32867439 45.26485344 -60.71547246 46.70457917 -60.10287476 48.14456177 C-58.40034637 52.14059423 -56.6813341 56.12826895 -54.93188477 60.10400391 C-48.92132199 73.81656498 -48.92132199 73.81656498 -47.0546875 80.3203125 C-45.02704713 86.98935322 -43.09739494 91.98558505 -37.06591797 95.90820312 C-30.23100309 99.49895767 -23.13367861 102.26733982 -15.86889648 104.85717773 C-9.35594464 107.18078199 -3.10003739 110.00130754 3.1875 112.875 C5.03035091 113.71633531 6.87760798 114.54813222 8.73046875 115.3671875 C9.48739014 115.70862793 10.24431152 116.05006836 11.02416992 116.40185547 C13.17803029 117.26151151 13.17803029 117.26151151 16 116 C16.65677124 106.55917737 17.30904663 97.11805755 17.95575714 87.67654037 C18.25626407 83.2913687 18.55825506 78.90631025 18.86376953 74.52148438 C19.15915382 70.28123076 19.45046752 66.04071447 19.73908997 61.79999542 C19.84929244 60.19098393 19.96090328 58.58206819 20.07402039 56.97325897 C20.70577983 47.9737353 21.17230952 39.02819853 21 30 C16.77568045 29.92038711 12.61476578 30.235242 8.41162109 30.61083984 Z M-275.75 35.4375 C-286.96471802 46.83022942 -312 74.10625288 -312 91 C-311.41323486 91.3309668 -310.82646973 91.66193359 -310.22192383 92.00292969 C-307.41844984 93.58469756 -304.61547828 95.16735389 -301.8125 96.75 C-300.78487549 97.32967529 -299.75725098 97.90935059 -298.69848633 98.5065918 C-293.40852167 101.49421358 -288.12769397 104.49592292 -282.8671875 107.53515625 C-281.91094482 108.08655273 -280.95470215 108.63794922 -279.96948242 109.20605469 C-278.13683591 110.26430954 -276.30621164 111.32607538 -274.4777832 112.39160156 C-273.65366943 112.86694336 -272.82955566 113.34228516 -271.98046875 113.83203125 C-271.25754639 114.25202393 -270.53462402 114.6720166 -269.78979492 115.10473633 C-268.0354179 116.14911999 -268.0354179 116.14911999 -266 116 C-265.86710837 107.46478594 -266.28295551 99.01136802 -266.83984375 90.49609375 C-266.92738177 89.12331219 -267.01466195 87.75051417 -267.10169983 86.37770081 C-267.28365555 83.51931635 -267.46792745 80.66109443 -267.65405273 77.80297852 C-267.89076643 74.16685249 -268.12281479 70.53044786 -268.3532629 66.89391994 C-268.53284266 64.06515706 -268.71431472 61.23651808 -268.89639473 58.40791512 C-269.02393953 56.42404402 -269.15040468 54.4401036 -269.27684021 52.4561615 C-269.7232328 45.62114889 -270.25300008 38.80909419 -271 32 C-272.9738171 32 -274.42979653 34.16307001 -275.75 35.4375 Z M26 33 C25.08219341 37.05632321 24.71080202 41.026696 24.42749023 45.17358398 C24.37857635 45.87668701 24.32966248 46.57979004 24.27926636 47.30419922 C24.11915904 49.61795579 23.96376803 51.93200151 23.80859375 54.24609375 C23.6981488 55.86126737 23.5874733 57.47642525 23.47657776 59.09156799 C23.24510908 62.47310013 23.01587716 65.85477403 22.78833008 69.23657227 C22.49718682 73.56204215 22.20135289 77.88717513 21.90394497 82.21221828 C21.67502416 85.54675183 21.44816788 88.88142328 21.22197151 92.21614265 C21.11365967 93.81051312 21.00481336 95.40484737 20.89541435 96.9991436 C20.74262162 99.2316381 20.59250584 101.46429707 20.44311523 103.69702148 C20.35730698 104.96545395 20.27149872 106.23388641 20.18309021 107.54075623 C20.01574458 110.70252727 19.96553559 113.83468568 20 117 C32.00988097 111.26755261 43.5166351 104.71466367 55 98 C55.93392578 97.46004395 56.86785156 96.92008789 57.83007812 96.36376953 C58.73693359 95.83251465 59.64378906 95.30125977 60.578125 94.75390625 C61.4021582 94.27381104 62.22619141 93.79371582 63.07519531 93.29907227 C65.13582224 92.13768391 65.13582224 92.13768391 66 90 C64.98037877 87.54433565 63.89953456 85.23488298 62.6875 82.875 C62.32575684 82.16432373 61.96401367 81.45364746 61.59130859 80.72143555 C53.14563088 64.43436746 41.47417641 43.3161176 26 33 Z M-177 39 C-181.99842837 48.72478201 -186.52693357 58.56930011 -190.8125 68.625 C-191.67099809 70.6301769 -192.53068944 72.63483319 -193.39152527 74.63900757 C-194.16012501 76.42977523 -194.92550458 78.22192401 -195.69067383 80.01416016 C-196.46237145 81.77397033 -197.27474902 83.51843101 -198.17456055 85.21630859 C-199.2099898 87.12619552 -199.2099898 87.12619552 -199 90 C-192.04058288 87.81132411 -185.46468924 85.11054801 -178.8125 82.125 C-176.61625423 81.14890932 -174.41962134 80.17368932 -172.22265625 79.19921875 C-171.06266113 78.68407715 -169.90266602 78.16893555 -168.70751953 77.63818359 C-162.73647941 74.99422854 -156.74395094 72.39948181 -150.7515564 69.80438232 C-148.78038088 68.95065809 -146.80973322 68.09572386 -144.83911133 67.24072266 C-143.62892334 66.71655762 -142.41873535 66.19239258 -141.171875 65.65234375 C-140.1003418 65.18820068 -139.02880859 64.72405762 -137.92480469 64.24584961 C-135.29664954 63.12636082 -132.65716682 62.04844561 -130 61 C-130 60.34 -130 59.68 -130 59 C-134.60225209 56.95117097 -139.20641303 54.90671093 -143.81225586 52.8659668 C-145.37298574 52.17375286 -146.93322303 51.480427 -148.49291992 50.78588867 C-157.90751141 46.59456459 -167.32922485 42.5721073 -177 39 Z M-70 39 C-72.54917807 39.92437485 -74.98749658 40.91622691 -77.46484375 42.0078125 C-78.21278702 42.33030975 -78.96073029 42.65280701 -79.7313385 42.9850769 C-82.13662332 44.02443397 -84.536989 45.07467123 -86.9375 46.125 C-88.52118451 46.81058892 -90.1051658 47.49549274 -91.68945312 48.1796875 C-99.83089122 51.70349373 -107.94385373 55.284512 -116 59 C-116 59.66 -116 60.32 -116 61 C-111.29210371 63.06349868 -106.58369772 65.12583095 -101.875 67.1875 C-100.80904602 67.65428162 -100.80904602 67.65428162 -99.72155762 68.13049316 C-91.59939849 71.68641572 -83.47364133 75.23368335 -75.3359375 78.75390625 C-74.3067067 79.1991993 -74.3067067 79.1991993 -73.25668335 79.65348816 C-69.97122678 81.07445513 -66.68503268 82.4936894 -63.39794922 83.91088867 C-62.21990723 84.41982666 -61.04186523 84.92876465 -59.828125 85.453125 C-58.7959082 85.89817383 -57.76369141 86.34322266 -56.70019531 86.80175781 C-55.04978812 87.53414466 -53.41696325 88.31048211 -51.82324219 89.15917969 C-49.8805867 90.20939028 -49.8805867 90.20939028 -47 90 C-49.3727798 82.3271966 -52.50364276 75.12418792 -55.8125 67.8125 C-56.89020627 65.41576159 -57.96703807 63.01862977 -59.04296875 60.62109375 C-59.55520996 59.4801123 -60.06745117 58.33913086 -60.59521484 57.16357422 C-62.79202591 52.21635875 -64.87185621 47.22362566 -66.9140625 42.2109375 C-67.79710173 39.84909141 -67.79710173 39.84909141 -70 39 Z M-130.3359375 65.140625 C-131.44163086 65.62499023 -132.54732422 66.10935547 -133.68652344 66.60839844 C-134.91604143 67.15554098 -136.14553274 67.70274348 -137.375 68.25 C-138.66143978 68.81621207 -139.94823467 69.38161791 -141.23535156 69.94628906 C-143.36678987 70.88179602 -145.49782016 71.81817976 -147.62768555 72.75726318 C-154.12459479 75.62172882 -160.63496298 78.45467992 -167.1484375 81.28125 C-168.18845917 81.73264343 -169.22848083 82.18403687 -170.30001831 82.64910889 C-172.40239956 83.56150099 -174.50480634 84.47383424 -176.60723877 85.3861084 C-181.671218 87.58376779 -186.73440908 89.78323197 -191.796875 91.984375 C-192.69763763 92.37548462 -193.59840027 92.76659424 -194.52645874 93.16955566 C-195.35142853 93.52835815 -196.17639832 93.88716064 -197.02636719 94.25683594 C-197.74862488 94.57070251 -198.47088257 94.88456909 -199.21502686 95.20794678 C-203.80184714 97.24327476 -204.65473996 100.30708025 -206.5703125 104.765625 C-206.92412491 105.57471313 -207.27793732 106.38380127 -207.64247131 107.21740723 C-208.81004242 109.89206526 -209.96793559 112.57078164 -211.125 115.25 C-211.92710845 117.09814751 -212.7296025 118.94612772 -213.5324707 120.79394531 C-214.77248119 123.64903091 -216.01156301 126.50450027 -217.24769592 129.36126709 C-219.67733726 134.97322338 -222.13262786 140.57271191 -224.61907959 146.159729 C-226.12595427 149.54741675 -227.6226134 152.93956358 -229.11785889 156.33239746 C-229.82879934 157.93926487 -230.54415066 159.54418825 -231.26397705 161.14709473 C-232.26520857 163.37927781 -233.24962986 165.61817232 -234.23046875 167.859375 C-234.52848892 168.51280884 -234.82650909 169.16624268 -235.13356018 169.83947754 C-237.25663289 174.7605603 -236.9274888 177.53781101 -235.0738678 182.45858765 C-234.50955299 183.75018295 -234.50955299 183.75018295 -233.93383789 185.06787109 C-233.50571304 186.05435638 -233.0775882 187.04084167 -232.63648987 188.05722046 C-231.93664223 189.64924789 -231.93664223 189.64924789 -231.22265625 191.2734375 C-230.7372789 192.38820465 -230.25190155 193.5029718 -229.7518158 194.65151978 C-228.1933237 198.22804636 -226.6280513 201.80155861 -225.0625 205.375 C-223.53687104 208.87087949 -222.01259374 212.36733098 -220.49111938 215.86502075 C-219.47689545 218.18334299 -218.45322252 220.49755385 -217.42025757 222.80758667 C-214.96791034 228.31620828 -212.67398882 233.79169205 -210.72705078 239.50048828 C-207.5417998 248.51173456 -204.88851633 255.8811414 -196.23522949 260.72779846 C-191.83567389 262.81745119 -187.33291222 264.48740819 -182.75 266.125 C-180.82745941 266.88118497 -178.90811109 267.64553339 -176.99194336 268.41772461 C-173.16252013 269.95037714 -169.32115735 271.44175373 -165.46240234 272.89892578 C-158.36386243 275.59768696 -151.42586722 278.63827502 -144.48474121 281.71453857 C-140.51162025 283.46720795 -136.51573 285.16753084 -132.52563477 286.88110352 C-130 288 -130 288 -128.09741211 289.21069336 C-122.43763592 291.34060332 -116.45956829 288.1796224 -111.27734375 285.859375 C-110.18138885 285.38129395 -110.18138885 285.38129395 -109.06329346 284.89355469 C-106.68442754 283.85370655 -104.31102001 282.80198586 -101.9375 281.75 C-100.28658106 281.02553059 -98.63529096 280.30190643 -96.98364258 279.57910156 C-93.62224242 278.10716677 -90.2626869 276.63113254 -86.90429688 275.15234375 C-82.33561191 273.1434694 -77.75634513 271.16004385 -73.171875 269.1875 C-72.48746841 268.89272766 -71.80306183 268.59795532 -71.09791565 268.29425049 C-68.50349281 267.17696358 -65.90900017 266.05984713 -63.31344604 264.94519043 C-60.4826198 263.72840471 -57.65960394 262.49956304 -54.84912109 261.23632812 C-52 260 -52 260 -49.65478516 259.24804688 C-44.49902595 257.39833657 -42.84759829 254.44248035 -40.37890625 249.6171875 C-39.20467763 247.09789527 -38.09738098 244.55351322 -37 242 C-36.23792236 240.2989209 -36.23792236 240.2989209 -35.46044922 238.56347656 C-33.92112574 235.09685777 -32.42483271 231.61422006 -30.9375 228.125 C-29.81810279 225.51489538 -28.69604302 222.9059372 -27.57421875 220.296875 C-27.28725128 219.62832489 -27.00028381 218.95977478 -26.70462036 218.27096558 C-24.5231193 213.19512411 -22.30918037 208.13408565 -20.08203125 203.078125 C-19.59953163 201.98158096 -19.59953163 201.98158096 -19.10728455 200.86288452 C-17.84556287 197.99593954 -16.58370121 195.12907465 -15.31613159 192.26470947 C-14.44234793 190.28966481 -13.5724002 188.31296969 -12.703125 186.3359375 C-12.20458008 185.20720215 -11.70603516 184.0784668 -11.19238281 182.91552734 C-10.79889648 181.95340332 -10.40541016 180.9912793 -10 180 C-9.72212646 179.35385742 -9.44425293 178.70771484 -9.15795898 178.04199219 C-8.89943558 174.69996782 -10.41666216 171.96868247 -11.76953125 168.9921875 C-12.07614182 168.29038864 -12.38275238 167.58858978 -12.69865417 166.86552429 C-14.0803427 163.71383488 -15.49501946 160.57741249 -16.91235352 157.44161987 C-18.05731312 154.90732747 -19.19664604 152.37062746 -20.33203125 149.83203125 C-20.72303009 148.95890793 -21.11402893 148.08578461 -21.51687622 147.186203 C-24.33229343 140.79018107 -26.69425132 134.31041938 -28.94921875 127.69921875 C-35.93729929 105.81165671 -35.93729929 105.81165671 -52.07247925 90.73548889 C-57.38818784 88.30738278 -62.94545079 86.54073966 -68.55935669 84.94297791 C-76.05134763 82.80689719 -83.00066985 79.66649538 -90.07318115 76.4329834 C-93.28599907 74.97208163 -96.52134255 73.56379075 -99.7578125 72.15625 C-103.47715853 70.53800822 -107.19376372 68.9153982 -110.89746094 67.26171875 C-112.15813073 66.70556503 -113.41887046 66.14956982 -114.6796875 65.59375 C-115.79843262 65.09552734 -116.91717773 64.59730469 -118.06982422 64.08398438 C-122.8893562 62.3010547 -125.82892642 63.14623602 -130.3359375 65.140625 Z M-314 95 C-323.49791242 116.05510674 -330.26997198 139.76313867 -330.0625 163 C-330.05798828 163.67933594 -330.05347656 164.35867188 -330.04882812 165.05859375 C-330.0372283 166.70576874 -330.01930199 168.35289726 -330 170 C-326.08024351 168.30781244 -322.92771162 165.71200866 -319.625 163.0625 C-318.3672621 162.06370814 -317.10944747 161.06501289 -315.8515625 160.06640625 C-315.2112207 159.55609863 -314.57087891 159.04579102 -313.91113281 158.52001953 C-310.95161314 156.16616548 -307.97558494 153.83348725 -305 151.5 C-301.53208545 148.77731302 -298.06559937 146.05288754 -294.60546875 143.3203125 C-285.4764797 136.1176838 -276.25246077 129.04314462 -267 122 C-270.17808623 119.49337409 -273.50564972 117.4860669 -277.0234375 115.48828125 C-277.60606354 115.15636276 -278.18868958 114.82444427 -278.78897095 114.48246765 C-280.64954185 113.42325782 -282.5122054 112.36779322 -284.375 111.3125 C-285.58738324 110.62329952 -286.79962401 109.93384835 -288.01171875 109.24414062 C-289.82840117 108.2105362 -291.64539525 107.17750636 -293.46356201 106.14651489 C-296.6487022 104.34020274 -299.82860437 102.52543529 -303.00097656 100.69677734 C-303.64660553 100.32530075 -304.2922345 99.95382416 -304.95742798 99.5710907 C-306.19866358 98.85640081 -307.43891632 98.14000059 -308.67807007 97.42170715 C-311.18368119 95.72354616 -311.18368119 95.72354616 -314 95 Z M61.78515625 98.67578125 C60.71442871 99.25183105 59.64370117 99.82788086 58.54052734 100.42138672 C57.39277832 101.0454541 56.2450293 101.66952148 55.0625 102.3125 C53.88754648 102.94810517 52.71257895 103.58368446 51.53759766 104.21923828 C41.58008998 109.62139918 31.75507821 115.24097793 22 121 C25.74282231 124.89140316 29.6989655 128.28633389 33.9375 131.625 C34.59355225 132.14570068 35.24960449 132.66640137 35.92553711 133.20288086 C37.94741496 134.80568651 39.97307401 136.40358475 42 138 C42.90927246 138.71712158 42.90927246 138.71712158 43.83691406 139.44873047 C47.88528024 142.6401514 51.94191189 145.8209569 56 149 C58.41732522 150.89499517 60.83380965 152.79105816 63.25 154.6875 C63.83064209 155.14253906 64.41128418 155.59757812 65.00952148 156.06640625 C69.35209262 159.47476579 73.64693218 162.93886413 77.9140625 166.44140625 C79.87731934 167.90833412 81.77421794 168.98782309 84 170 C85.1433922 144.42189293 77.76602236 119.74657354 69 96 C66.10356461 96 64.33059685 97.30318307 61.78515625 98.67578125 Z M-36 101 C-35.36174642 104.90539779 -34.17908095 108.20321185 -32.5859375 111.8203125 C-32.07893311 112.97966309 -31.57192871 114.13901367 -31.04956055 115.33349609 C-30.77703461 115.95053406 -30.50450867 116.56757202 -30.22372437 117.20330811 C-29.06415856 119.82881092 -27.91524563 122.45892852 -26.76585388 125.08889771 C-26.15225057 126.49283295 -25.53811367 127.89653508 -24.92347717 129.30001831 C-21.12937287 137.97071239 -17.40997762 146.67338078 -13.6875 155.375 C-13.01681631 156.94159127 -12.34608185 158.5081608 -11.67529297 160.07470703 C-10.11618462 163.71618182 -8.55784662 167.35798527 -7 171 C-5.00943562 168.01415343 -3.63452574 165.12932588 -2.171875 161.85546875 C-1.90038635 161.24923172 -1.62889771 160.64299469 -1.34918213 160.01838684 C-0.77300706 158.73036121 -0.19814917 157.44174568 0.37548828 156.15258789 C1.23051591 154.2312821 2.08946345 152.31177223 2.94921875 150.39257812 C4.36002878 147.23838384 5.76046225 144.07974589 7.15405273 140.91790771 C7.72809993 139.61644415 8.30384088 138.31572659 8.88110352 137.01568604 C9.73376169 135.09234838 10.5787949 133.16583335 11.421875 131.23828125 C11.9178418 130.11075439 12.41380859 128.98322754 12.92480469 127.8215332 C14.17804474 125.03601618 14.17804474 125.03601618 14 122 C-6.02308932 112.93324906 -6.02308932 112.93324906 -26.1875 104.1875 C-26.96327393 103.85685547 -27.73904785 103.52621094 -28.53833008 103.18554688 C-32.14463536 101.56417693 -32.14463536 101.56417693 -36 101 Z M-215.8046875 102.546875 C-216.60302002 102.89177979 -217.40135254 103.23668457 -218.22387695 103.59204102 C-219.09874756 103.97416748 -219.97361816 104.35629395 -220.875 104.75 C-222.76162826 105.56661533 -224.64835243 106.38300912 -226.53515625 107.19921875 C-227.56141113 107.64442871 -228.58766602 108.08963867 -229.64501953 108.54833984 C-235.22483471 110.96265953 -240.81487898 113.35307099 -246.40411377 115.7454834 C-249.47423501 117.05986095 -252.54372893 118.37570063 -255.61328125 119.69140625 C-257.40885417 120.4609375 -259.20442708 121.23046875 -261 122 C-255.90217684 134.34132174 -250.76359721 146.66584922 -245.5 158.9375 C-245.07928223 159.93144775 -244.65856445 160.92539551 -244.22509766 161.94946289 C-243.63414307 163.31832642 -243.63414307 163.31832642 -243.03125 164.71484375 C-242.68642578 165.52042725 -242.34160156 166.32601074 -241.98632812 167.15600586 C-241.13596392 169.17275175 -241.13596392 169.17275175 -239 170 C-238.51233154 168.88890869 -238.02466309 167.77781738 -237.5222168 166.63305664 C-236.4573035 164.2067915 -235.39232226 161.78055625 -234.32719421 159.35438538 C-232.28761779 154.70853151 -230.24879711 150.06234869 -228.21142578 145.41552734 C-224.61151631 137.20739303 -221.00958274 129.00057965 -217.35546875 120.81640625 C-216.58553589 119.08668579 -216.58553589 119.08668579 -215.80004883 117.32202148 C-214.87086903 115.23745589 -213.93731782 113.15483167 -212.9987793 111.07446289 C-212.5944165 110.16559326 -212.19005371 109.25672363 -211.7734375 108.3203125 C-211.25402588 107.16426514 -211.25402588 107.16426514 -210.72412109 105.98486328 C-209.82863683 103.88242002 -209.82863683 103.88242002 -210 101 C-212.35019687 101 -213.65019035 101.60952558 -215.8046875 102.546875 Z M18 125 C17.65332275 125.80405273 17.30664551 126.60810547 16.94946289 127.43652344 C15.91132902 129.84264625 14.87218533 132.24831579 13.83203125 134.65356445 C12.6466434 137.39502151 11.4663516 140.13860117 10.2890625 142.88354492 C7.6472177 149.02483719 4.98521552 155.13108405 2.02734375 161.12890625 C1.38043579 162.46260254 1.38043579 162.46260254 0.72045898 163.82324219 C-0.06920961 165.43385651 -0.88217517 167.03334329 -1.72241211 168.61816406 C-3.14211184 171.54463758 -4.23602985 173.80011975 -3.59240723 177.07203674 C-3.33310425 177.77988815 -3.07380127 178.48773956 -2.80664062 179.21704102 C-2.52026733 180.00437119 -2.23389404 180.79170135 -1.93884277 181.60289001 C-0.47271991 185.34628334 1.0722519 189.04516788 2.6875 192.7265625 C3.03127686 193.51847992 3.37505371 194.31039734 3.72924805 195.12631226 C4.81593263 197.62744448 5.90782885 200.12625946 7 202.625 C7.73212534 204.30713742 8.46389903 205.98942793 9.1953125 207.671875 C10.54077645 210.76609847 11.88852194 213.85930832 13.23828125 216.95166016 C14.84120903 220.62781158 16.42424386 224.31212457 18 228 C24.70356992 223.13662575 30.99453785 217.84065198 37.28564453 212.46435547 C40.0598758 210.09468313 42.84137761 207.7336292 45.625 205.375 C46.16600342 204.91649658 46.70700684 204.45799316 47.2644043 203.9855957 C51.52381147 200.38415096 55.83769073 196.85275901 60.1640625 193.33203125 C63.97670669 190.19684037 67.74073564 187.00586241 71.49804688 183.8046875 C74.62255607 181.14669849 77.78350252 178.5458993 81 176 C79.45837464 171.75807544 76.29576994 169.61233419 72.8125 167 C71.53322394 166.01905052 70.25459918 165.03725118 68.9765625 164.0546875 C68.31688477 163.5503418 67.65720703 163.04599609 66.97753906 162.52636719 C63.84259382 160.10665389 60.76835104 157.61293719 57.6875 155.125 C51.63186644 150.25719616 45.48726135 145.51520753 39.30151367 140.81420898 C33.88200337 136.69163279 28.52030637 132.50078324 23.20092773 128.24975586 C20.86134787 125.99660755 20.86134787 125.99660755 18 125 Z M-269.37890625 128.59765625 C-270.05373047 129.15259766 -270.72855469 129.70753906 -271.42382812 130.27929688 C-272.12958984 130.86775391 -272.83535156 131.45621094 -273.5625 132.0625 C-279.3013551 136.80945422 -285.10553402 141.44761499 -291 146 C-292.40683329 147.0956056 -293.81309095 148.19195077 -295.21875 149.2890625 C-295.91564941 149.83199951 -296.61254883 150.37493652 -297.33056641 150.93432617 C-298.82320141 152.09756018 -300.31501743 153.26184561 -301.80615234 154.42700195 C-305.82210552 157.55772702 -309.85858546 160.65349243 -313.9453125 163.69140625 C-314.73099609 164.27905762 -315.51667969 164.86670898 -316.32617188 165.47216797 C-317.83455361 166.59768731 -319.3487278 167.71549376 -320.86914062 168.82470703 C-321.54396484 169.3298584 -322.21878906 169.83500977 -322.9140625 170.35546875 C-323.5117041 170.79528076 -324.1093457 171.23509277 -324.72509766 171.68823242 C-326.34847916 173.05368289 -326.34847916 173.05368289 -326 176 C-324.38538882 177.83351523 -324.38538882 177.83351523 -322.1875 179.625 C-321.35863281 180.33527344 -320.52976562 181.04554688 -319.67578125 181.77734375 C-316.16583984 184.69290093 -312.6299879 187.57526191 -309.0859375 190.44921875 C-305.49355999 193.39261265 -301.99961982 196.44746817 -298.5 199.5 C-293.35672792 203.98434066 -288.15405281 208.36962002 -282.84375 212.65625 C-280.62727352 214.48301633 -278.44777472 216.33404964 -276.28125 218.21875 C-275.64388916 218.77232178 -275.00652832 219.32589355 -274.34985352 219.89624023 C-273.09402347 220.99046212 -271.84177804 222.0888144 -270.59350586 223.19165039 C-267.71768076 226.0462702 -267.71768076 226.0462702 -264 227 C-261.32949014 220.96823987 -258.66036232 214.93586957 -255.9921875 208.90307617 C-255.08462712 206.85150352 -254.17675223 204.80006997 -253.26855469 202.7487793 C-251.96205968 199.79773012 -250.65670213 196.84618007 -249.3515625 193.89453125 C-248.94628326 192.97976517 -248.54100403 192.06499908 -248.1234436 191.12251282 C-247.74320038 190.26199814 -247.36295715 189.40148346 -246.97119141 188.51489258 C-246.4715538 187.38571159 -246.4715538 187.38571159 -245.96182251 186.23371887 C-245.64442108 185.49659164 -245.32701965 184.75946442 -245 184 C-244.62508423 183.15189758 -244.25016846 182.30379517 -243.8638916 181.42999268 C-241.87833662 175.84493541 -244.41844658 170.46215288 -246.6953125 165.31640625 C-246.96389572 164.70281754 -247.23247894 164.08922882 -247.50920105 163.45704651 C-248.37307852 161.48853322 -249.24883574 159.52557094 -250.125 157.5625 C-250.71980319 156.21308419 -251.31379529 154.86331058 -251.90698242 153.51318359 C-253.06974521 150.86990296 -254.23692891 148.22865867 -255.40869141 145.58935547 C-257.09161608 141.79335079 -258.75680351 137.98997062 -260.41552734 134.18334961 C-261.60520908 131.45329879 -262.80224836 128.72651827 -264 126 C-266.6547619 126 -267.35078947 126.9144739 -269.37890625 128.59765625 Z M-331 178 C-330.24069313 202.61201573 -328.14133436 231.97618418 -316 254 C-313.17510386 255.27876803 -313.17510386 255.27876803 -311.06494141 254.33647156 C-310.33452637 253.96722061 -309.60411133 253.59796967 -308.8515625 253.2175293 C-308.02060059 252.80347336 -307.18963867 252.38941742 -306.33349609 251.96281433 C-304.99279053 251.27545952 -304.99279053 251.27545952 -303.625 250.57421875 C-302.70412598 250.11143021 -301.78325195 249.64864166 -300.83447266 249.17182922 C-297.88486262 247.68632431 -294.9425846 246.1868649 -292 244.6875 C-290.01606321 243.68728138 -288.03169322 242.6879215 -286.046875 241.68945312 C-282.41154748 239.85479016 -278.77645802 238.01973032 -275.1484375 236.1706543 C-274.05281494 235.61319771 -274.05281494 235.61319771 -272.93505859 235.04447937 C-270.77613074 233.9178599 -270.77613074 233.9178599 -268 232 C-268 231.34 -268 230.68 -268 230 C-269.48738235 228.64617851 -271.04430551 227.36860114 -272.625 226.125 C-277.16076503 222.49871999 -281.6067359 218.79747519 -286 215 C-290.20230635 211.37509671 -294.43552113 207.80430282 -298.75 204.3125 C-302.28247113 201.44721595 -305.70075112 198.50124004 -309.0625 195.4375 C-316.01268811 189.11613843 -323.33921625 183.42521926 -331 178 Z M84 179 C83.15179688 179.73863281 82.30359375 180.47726562 81.4296875 181.23828125 C75.31260813 186.53746097 69.15164594 191.73421428 62.75 196.6875 C57.77444536 200.54106878 53.05159494 204.56824178 48.4140625 208.828125 C45.03019323 211.87251224 41.49820007 214.7187743 37.9609375 217.58203125 C32.57700161 221.97867546 27.29466869 226.49658545 22 231 C25.29467917 233.67328983 28.76618985 235.4906157 32.56640625 237.36328125 C33.51760597 237.83497993 33.51760597 237.83497993 34.48802185 238.31620789 C36.51097162 239.31882018 38.53650812 240.31605115 40.5625 241.3125 C43.21103921 242.61827197 45.8579069 243.92737119 48.50390625 245.23828125 C49.46642807 245.71263107 49.46642807 245.71263107 50.44839478 246.19656372 C55.35613691 248.63170894 60.12259925 251.27299994 64.84350586 254.05541992 C67.11051919 255.33554152 67.11051919 255.33554152 70 254 C71.20113581 251.66266718 71.20113581 251.66266718 72.12109375 248.734375 C72.49741943 247.62747314 72.87374512 246.52057129 73.26147461 245.38012695 C73.64956299 244.18218506 74.03765137 242.98424316 74.4375 241.75 C74.83783447 240.5230542 75.23816895 239.2961084 75.65063477 238.03198242 C85.07337553 208.75003085 85.07337553 208.75003085 84 179 Z M-240 183 C-244.99650442 193.56845706 -249.77594331 204.21751394 -254.4375 214.9375 C-255.07990251 216.41088387 -255.72247993 217.8841915 -256.36523438 219.35742188 C-257.91216177 222.90407751 -259.45676113 226.45173794 -261 230 C-258.50432843 232.49567157 -256.12627677 233.36963211 -252.875 234.7578125 C-252.25989563 235.02229187 -251.64479126 235.28677124 -251.01104736 235.55926514 C-249.00925807 236.41900677 -247.00473627 237.27215541 -245 238.125 C-242.26481984 239.29499956 -239.53079755 240.46769035 -236.796875 241.640625 C-236.123078 241.92916351 -235.44928101 242.21770203 -234.75506592 242.51498413 C-230.84376798 244.19371965 -226.95204686 245.9080274 -223.078125 247.671875 C-222.24539062 248.05069824 -221.41265625 248.42952148 -220.5546875 248.81982422 C-219.05180638 249.50790178 -217.55164688 250.20196471 -216.0546875 250.90283203 C-214.39511779 251.66005171 -212.70044777 252.33967384 -211 253 C-210.34 252.67 -209.68 252.34 -209 252 C-209.48243164 250.90461914 -209.96486328 249.80923828 -210.46191406 248.68066406 C-220.08175075 226.83229026 -229.66188138 204.97056454 -239 183 C-239.33 183 -239.66 183 -240 183 Z M-7 183 C-11.01449623 191.99357667 -15.01109099 200.99505303 -19 210 C-19.37620483 210.84904907 -19.75240967 211.69809814 -20.14001465 212.57287598 C-22.6041072 218.1356486 -25.06319748 223.70059982 -27.51715088 229.26785278 C-28.34019952 231.13355601 -29.16454433 232.99868796 -29.99017334 234.86325073 C-31.15841281 237.50235582 -32.32195289 240.14348471 -33.484375 242.78515625 C-33.84006561 243.58607697 -34.19575623 244.38699768 -34.56222534 245.21218872 C-36.35506474 248.96367419 -36.35506474 248.96367419 -37 253 C-32.66191335 251.61791117 -28.51576422 249.99284207 -24.34375 248.171875 C-23.71956177 247.90038635 -23.09537354 247.62889771 -22.45227051 247.34918213 C-20.4671252 246.48518587 -18.48351658 245.61772794 -16.5 244.75 C-14.55273974 243.90080787 -12.60516441 243.05234861 -10.65722656 242.20471191 C-9.36783117 241.64242834 -8.07941129 241.07790232 -6.79199219 240.5111084 C-3.52966663 239.07877203 -0.2580793 237.69279485 3.0546875 236.38085938 C3.70207886 236.11936096 4.34947021 235.85786255 5.01647949 235.58843994 C6.80164475 234.87021103 8.59303916 234.16752116 10.38476562 233.46582031 C13.02873304 232.25938136 13.02873304 232.25938136 14.06884766 230.28833008 C13.96116057 226.70907111 12.4672378 223.75667212 10.9921875 220.55859375 C10.66969025 219.83567642 10.34719299 219.11275909 10.0149231 218.36793518 C8.97904606 216.05277787 7.92731655 213.74522442 6.875 211.4375 C6.1890512 209.91128011 5.50414422 208.38459151 4.8203125 206.85742188 C2.89453377 202.56505495 0.94943723 198.28166192 -1 194 C-1.53077148 192.83098145 -2.06154297 191.66196289 -2.60839844 190.45751953 C-3.73750083 187.9710241 -4.86790272 185.48513286 -6 183 C-6.33 183 -6.66 183 -7 183 Z M-272.43359375 238.7109375 C-273.54951904 239.29214355 -274.66544434 239.87334961 -275.81518555 240.47216797 C-277.02268033 241.1063375 -278.23011738 241.74061696 -279.4375 242.375 C-280.65973927 243.01351455 -281.88215224 243.65169671 -283.10473633 244.28955078 C-286.73938499 246.18754388 -290.3699334 248.09325763 -294 250 C-295.03447266 250.54269531 -296.06894531 251.08539063 -297.13476562 251.64453125 C-302.42736166 254.42179859 -307.71586003 257.20667875 -313 260 C-310.3737835 267.05654591 -307.25469356 273.60207272 -303.5 280.125 C-302.97881592 281.0322583 -302.45763184 281.9395166 -301.9206543 282.87426758 C-294.59903025 295.37055677 -285.85203052 306.409553 -276 317 C-273.97772292 319.31536071 -271.98807107 321.65509566 -270 324 C-267.52243564 320.18955144 -267.61647637 316.23035486 -267.49755859 311.83496094 C-267.45322945 310.60513489 -267.45322945 310.60513489 -267.40800476 309.35046387 C-267.31268447 306.64532183 -267.23050507 303.93994882 -267.1484375 301.234375 C-267.0848443 299.3567636 -267.02043104 297.47917981 -266.95523071 295.60162354 C-266.78595042 290.66337222 -266.62781446 285.72482443 -266.47198486 280.78613281 C-266.3109601 275.74521667 -266.13941449 270.70465985 -265.96875 265.6640625 C-265.63552681 255.77636518 -265.31407407 245.8883228 -265 236 C-267.94173612 236 -269.83257752 237.35058652 -272.43359375 238.7109375 Z M-261 236 C-261.39395492 245.83219429 -261.7853142 255.66448825 -262.17345428 265.49691391 C-262.35380569 270.06358597 -262.53501634 274.63022042 -262.71826172 279.19677734 C-262.89541186 283.61225688 -263.07021217 288.02782401 -263.24345398 292.44345856 C-263.30960698 294.11938988 -263.37657498 295.79528926 -263.44441223 297.47115326 C-263.81549225 306.65239956 -264.10647224 315.80874127 -264 325 C-254.26540709 324.33205608 -244.58162434 323.34328814 -234.890625 322.22265625 C-233.78505878 322.09538556 -233.78505878 322.09538556 -232.6571579 321.96554375 C-228.77825769 321.51875778 -224.89972858 321.06889855 -221.02148438 320.61645508 C-217.01752236 320.15000101 -213.01237089 319.69468506 -209.00687027 319.24166203 C-205.91619811 318.89007061 -202.82651637 318.53031664 -199.73705292 318.16827202 C-198.25896501 317.99652762 -196.7805102 317.82791141 -195.30170441 317.66246223 C-193.24982088 317.43215193 -191.19961305 317.19034717 -189.14941406 316.94555664 C-187.98283264 316.81089493 -186.81625122 316.67623322 -185.61431885 316.53749084 C-184.75159363 316.36011887 -183.88886841 316.18274689 -183 316 C-182.67 315.34 -182.34 314.68 -182 314 C-182.78261747 311.837003 -183.67611319 309.71393881 -184.61328125 307.61328125 C-184.896875 306.96809036 -185.18046875 306.32289948 -185.47265625 305.65815735 C-187.05752162 302.06450301 -188.68740764 298.49248793 -190.33081055 294.92529297 C-196.10957699 282.29267731 -196.10957699 282.29267731 -197.71875 275.39453125 C-199.56800999 268.21850185 -201.51628786 261.9951625 -207.96954346 257.68432617 C-219.52632002 250.97796376 -232.23792515 246.42936857 -244.74450684 241.84655762 C-248.85498236 240.3037667 -252.87840898 238.56646366 -256.90478516 236.81689453 C-258.93575832 235.87891569 -258.93575832 235.87891569 -261 236 Z M5.9375 239 C5.23214111 239.31396729 4.52678223 239.62793457 3.80004883 239.95141602 C1.53099819 240.96240386 -0.73463683 241.9807797 -3 243 C-5.1966375 243.98401188 -7.39396696 244.96632935 -9.59341431 245.94404602 C-11.08571769 246.61212961 -12.57380018 247.28971425 -14.05770874 247.97624207 C-17.99018612 249.77352339 -21.85131669 251.30803663 -25.99853516 252.5402832 C-34.57305552 255.24240646 -40.20686321 257.85570191 -44.57049561 266.01730347 C-46.73583786 270.65989627 -48.57539726 275.39375822 -50.375 280.1875 C-51.1553321 282.11512155 -51.94176357 284.04028558 -52.734375 285.96289062 C-54.90545597 291.27832527 -56.96365234 296.6318294 -59 302 C-59.5472536 303.42056643 -60.09565286 304.84069235 -60.64550781 306.26025391 C-61.77119789 309.17071889 -62.88992062 312.08355611 -64 315 C-62.07510689 316.92489311 -58.62431496 316.63609013 -55.98925781 316.93969727 C-55.25587189 317.02762543 -54.52248596 317.11555359 -53.76687622 317.20614624 C-51.3294491 317.49720343 -48.89132827 317.78192976 -46.453125 318.06640625 C-44.76255859 318.2664637 -43.07202758 318.46682056 -41.38153076 318.66746521 C-37.83084244 319.08793488 -34.27981695 319.50539463 -30.72851562 319.9206543 C-26.18053036 320.4526085 -21.63333063 320.99095492 -17.0863533 321.53144932 C-13.59159311 321.94631881 -10.09649403 322.35827178 -6.60128021 322.76930046 C-4.92508504 322.96667527 -3.24898231 323.16483688 -1.57297516 323.36380196 C0.77491571 323.64198281 3.1232211 323.91635622 5.47167969 324.18969727 C6.50834274 324.31357567 6.50834274 324.31357567 7.56594849 324.43995667 C11.06365056 324.84283392 14.47898006 325.08786401 18 325 C18.16217746 305.98063815 17.72650939 287.01456913 17.07287598 268.01031494 C16.94904492 264.38198199 16.83024512 260.75348401 16.7109375 257.125 C16.4786962 250.08317073 16.24118345 243.04152918 16 236 C12.1655198 236 9.36181132 237.44814618 5.9375 239 Z M20 236 C20.24052719 244.81607742 20.48383564 253.63207277 20.73049068 262.44798088 C20.84499574 266.54357352 20.95861785 270.6391863 21.07006836 274.73486328 C21.17808686 278.70312892 21.28862522 282.67131774 21.40075874 286.63946915 C21.44267215 288.1373367 21.48374638 289.63522803 21.5238781 291.13314438 C21.81857507 302.102303 22.34380024 313.04657722 23 324 C41.79987608 305.23929849 55.49013917 284.86649617 67 261 C63.69720561 257.20847024 59.87482695 255.1840884 55.41796875 253.03125 C54.68556473 252.66906372 53.95316071 252.30687744 53.19856262 251.93371582 C50.86522061 250.78148494 48.5266904 249.64030409 46.1875 248.5 C43.86008102 247.35766403 41.53383011 246.21301285 39.20857239 245.06628418 C37.76529865 244.35534676 36.32062773 243.64723591 34.87431335 242.94250488 C31.5538855 241.31460195 28.31521807 239.62601195 25.1262207 237.75195312 C22.30649114 235.83704232 22.30649114 235.83704232 20 236 Z M-199 263 C-196.47324513 271.19851314 -193.07495576 278.97160337 -189.625 286.8125 C-188.49061112 289.40165551 -187.3583567 291.99174064 -186.2265625 294.58203125 C-185.81654999 295.51899338 -185.81654999 295.51899338 -185.39825439 296.47488403 C-182.86080037 302.28716783 -180.41421662 308.13563093 -178 314 C-173.87259698 313.35385091 -170.45493598 311.9991323 -166.66015625 310.26953125 C-166.05674911 309.99662766 -165.45334198 309.72372406 -164.83164978 309.44255066 C-162.90633514 308.57075713 -160.98430993 307.69198875 -159.0625 306.8125 C-156.5543827 305.6709747 -154.0449469 304.53237206 -151.53515625 303.39453125 C-150.61012802 302.97435226 -150.61012802 302.97435226 -149.66641235 302.54568481 C-143.15351117 299.59714133 -136.58279576 296.78856746 -130 294 C-132.60403737 290.90630968 -135.56059062 289.6844719 -139.23828125 288.1015625 C-139.86355209 287.83001846 -140.48882294 287.55847443 -141.13304138 287.27870178 C-143.18998936 286.38731505 -145.25111868 285.50608002 -147.3125 284.625 C-148.74213513 284.0082011 -150.17149392 283.3907613 -151.60058594 282.77270508 C-154.56707816 281.49075798 -157.53519436 280.2126733 -160.50439453 278.93701172 C-164.89431769 277.04875903 -169.27423308 275.13810528 -173.65234375 273.22265625 C-175.69512825 272.33056563 -177.73807305 271.4388434 -179.78109741 270.54730225 C-181.08824982 269.97648042 -182.39507674 269.40491263 -183.7015686 268.83258057 C-185.52368528 268.03510656 -187.3477383 267.24206126 -189.171875 266.44921875 C-190.2040918 265.99893311 -191.23630859 265.54864746 -192.29980469 265.0847168 C-194.54122291 264.18429897 -196.64333673 263.49982366 -199 263 Z M-54.96484375 265.53515625 C-55.57799438 265.80543137 -56.19114502 266.07570648 -56.82287598 266.35417175 C-58.86252381 267.25372562 -60.89999766 268.1580983 -62.9375 269.0625 C-65.8322582 270.34228872 -68.72833115 271.61907347 -71.625 272.89453125 C-72.37937851 273.22689789 -73.13375702 273.55926453 -73.91099548 273.90170288 C-79.54726158 276.37828828 -85.2054285 278.79997311 -90.875 281.19921875 C-92.07993858 281.71023888 -92.07993858 281.71023888 -93.30921936 282.23158264 C-96.46766042 283.57081165 -99.62608663 284.9098752 -102.79000854 286.2361145 C-104.98616367 287.15691341 -107.17886376 288.08552836 -109.37109375 289.015625 C-110.0300061 289.28900192 -110.68891846 289.56237885 -111.36779785 289.84403992 C-114.83593286 291.16436864 -114.83593286 291.16436864 -117 294 C-115.97567871 294.42913696 -115.97567871 294.42913696 -114.93066406 294.86694336 C-111.70265357 296.22113972 -108.47615292 297.57888414 -105.25 298.9375 C-104.07816162 299.43024414 -102.90632324 299.92298828 -101.69897461 300.43066406 C-96.07431408 302.8075503 -90.47196947 305.21423392 -84.92578125 307.76953125 C-84.01473633 308.18920166 -83.10369141 308.60887207 -82.16503906 309.04125977 C-80.45850814 309.83385213 -78.75585012 310.63484904 -77.05761719 311.44506836 C-76.29739258 311.79835205 -75.53716797 312.15163574 -74.75390625 312.515625 C-74.09720947 312.82790039 -73.4405127 313.14017578 -72.76391602 313.46191406 C-70.78747529 314.25097637 -70.78747529 314.25097637 -68 313 C-66.57306623 310.24281589 -65.32678781 307.54328642 -64.12890625 304.6875 C-63.76530502 303.84461426 -63.4017038 303.00172852 -63.02708435 302.13330078 C-61.86205273 299.42643358 -60.71205922 296.71346929 -59.5625 294 C-58.79201571 292.20139417 -58.02054263 290.40321158 -57.24804688 288.60546875 C-55.4886017 284.5086968 -53.74116016 280.40694741 -51.99685669 276.30371094 C-50.62195992 273.12635881 -49.18268341 269.97890553 -47.73423767 266.83447266 C-46.87613787 265.01985957 -46.87613787 265.01985957 -47 263 C-50.00776279 263 -52.22064932 264.3182872 -54.96484375 265.53515625 Z M-132.3359375 299.0703125 C-133.05173981 299.38902313 -133.76754211 299.70773376 -134.5050354 300.03610229 C-136.79819299 301.05881367 -139.08666161 302.09155686 -141.375 303.125 C-143.62095791 304.13139081 -145.86784626 305.13568238 -148.11480713 306.13983154 C-149.59026748 306.79945245 -151.0653279 307.45996867 -152.53997803 308.12139893 C-159.32621495 311.16110908 -166.15396185 314.09765203 -173 317 C-172.1087546 321.55765949 -169.46636383 324.44564718 -166.5625 327.9375 C-165.45990278 329.28821852 -164.35835643 330.63979547 -163.2578125 331.9921875 C-162.43071777 333.00490723 -162.43071777 333.00490723 -161.58691406 334.03808594 C-159.3195583 336.8412353 -157.1232045 339.69550817 -154.9375 342.5625 C-151.13320558 347.5378713 -147.28570679 352.47658596 -143.40405273 357.3918457 C-140.67775547 360.84873502 -137.9774032 364.3238681 -135.296875 367.81640625 C-134.6668457 368.63471924 -134.03681641 369.45303223 -133.38769531 370.29614258 C-132.14895417 371.90640994 -130.91380105 373.51944518 -129.68261719 375.13549805 C-129.11704102 375.86937744 -128.55146484 376.60325684 -127.96875 377.359375 C-127.46794922 378.01389648 -126.96714844 378.66841797 -126.45117188 379.34277344 C-124.90959077 381.24844541 -124.90959077 381.24844541 -122 383 C-121.29875 382.10539062 -120.5975 381.21078125 -119.875 380.2890625 C-114.88886773 373.9328907 -109.88481243 367.5932724 -104.828125 361.29296875 C-102.44138106 358.29933906 -100.09860034 355.27268992 -97.75390625 352.24609375 C-96.00139102 350.00178137 -94.22323337 347.7804491 -92.4375 345.5625 C-88.46891732 340.60764234 -84.53950171 335.62262844 -80.625 330.625 C-80.0055249 329.83939697 -79.3860498 329.05379395 -78.74780273 328.24438477 C-78.16329346 327.49600342 -77.57878418 326.74762207 -76.9765625 325.9765625 C-76.45143066 325.30705566 -75.92629883 324.63754883 -75.38525391 323.94775391 C-74.02402213 322.03377662 -72.98837554 320.12675648 -72 318 C-82.09787713 313.24538586 -92.23668798 308.59141768 -102.43823242 304.06323242 C-103.95884172 303.38669085 -105.47801527 302.70691444 -106.99584961 302.02416992 C-109.2271982 301.02069097 -111.462623 300.02687477 -113.69921875 299.03515625 C-114.71323006 298.57593529 -114.71323006 298.57593529 -115.74772644 298.10743713 C-122.29669108 295.22959533 -126.08716867 296.22460555 -132.3359375 299.0703125 Z M-63 320 C-60.69251205 327.7215233 -57.35098996 334.647695 -53.6875 341.8125 C-53.13126953 342.91142578 -52.57503906 344.01035156 -52.00195312 345.14257812 C-50.8920374 347.33527543 -49.77992896 349.52686432 -48.66552734 351.71728516 C-46.08685803 356.79978114 -43.54254295 361.8993581 -41 367 C-35.6869528 365.304982 -30.97869705 363.09845483 -26.0625 360.5 C-25.22855713 360.05930176 -24.39461426 359.61860352 -23.53540039 359.16455078 C-11.88111761 352.89985951 -1.09675184 345.55836758 9 337 C9.78761719 336.33484375 10.57523437 335.6696875 11.38671875 334.984375 C14.24178006 332.54546442 14.24178006 332.54546442 17 330 C17 329.67 17 329.34 17 329 C6.86475872 327.82520979 -3.27062287 326.65163843 -13.40618706 325.47963715 C-18.11217009 324.93543314 -22.81810314 324.39080418 -27.52392578 323.84521484 C-32.06251904 323.31902961 -36.60123855 322.79394653 -41.14004898 322.26963806 C-42.87449849 322.06908181 -44.60890157 321.86812369 -46.3432579 321.66676331 C-48.7663158 321.38551255 -51.18953255 321.10567155 -53.61279297 320.82617188 C-54.69604355 320.6999369 -54.69604355 320.6999369 -55.80117798 320.57115173 C-59.39140585 320.14729294 -59.39140585 320.14729294 -63 320 Z M-192.31713867 320.82617188 C-193.42970284 320.95784508 -193.42970284 320.95784508 -194.56474304 321.09217834 C-197.01601861 321.38270845 -199.46699095 321.67571937 -201.91796875 321.96875 C-203.6176017 322.17068491 -205.31725303 322.37246513 -207.016922 322.57409668 C-211.4903686 323.10520338 -215.96356203 323.63841387 -220.43670654 324.17205811 C-225.00127354 324.716233 -229.56607607 325.25842444 -234.13085938 325.80078125 C-243.08747164 326.86524286 -252.04381779 327.93192644 -261 329 C-261.31708534 331.95526233 -261.31708534 331.95526233 -259.69921875 333.5859375 C-246.90759197 344.961792 -232.09529771 354.02923833 -217 362 C-215.97390625 362.54785156 -214.9478125 363.09570312 -213.890625 363.66015625 C-209.18820185 366.24312272 -209.18820185 366.24312272 -204 367 C-197.99246896 355.08604863 -192.01694732 343.15765192 -186.25 331.125 C-185.82025879 330.23466064 -185.39051758 329.34432129 -184.94775391 328.42700195 C-184.55765137 327.60804443 -184.16754883 326.78908691 -183.765625 325.9453125 C-183.42305664 325.22875488 -183.08048828 324.51219727 -182.72753906 323.77392578 C-181.87351475 322.01115046 -181.87351475 322.01115046 -182 320 C-185.48273849 320 -188.86582225 320.41116467 -192.31713867 320.82617188 Z M-69 322 C-69.99282826 323.18015434 -70.94182266 324.39713508 -71.875 325.625 C-74.95735876 329.64273851 -78.05867971 333.64342171 -81.1875 337.625 C-81.65260986 338.21740479 -82.11771973 338.80980957 -82.59692383 339.42016602 C-86.05901158 343.82235683 -89.5557617 348.19584163 -93.0625 352.5625 C-97.67510774 358.30766436 -102.19160624 364.117936 -106.6640625 369.97265625 C-109.58290896 373.75544221 -112.58062908 377.47033603 -115.6015625 381.171875 C-117.10126268 382.74876584 -117.10126268 382.74876584 -117 384 C-96.47160923 384.74648694 -75.51401676 379.67592918 -56.125 373.375 C-55.22104492 373.0860083 -54.31708984 372.7970166 -53.38574219 372.49926758 C-52.55977539 372.21849365 -51.73380859 371.93771973 -50.8828125 371.6484375 C-50.15465332 371.40270996 -49.42649414 371.15698242 -48.67626953 370.90380859 C-46.63646074 370.05098212 -46.63646074 370.05098212 -46 367 C-47.14014172 364.2101149 -48.34909638 361.58103281 -49.69921875 358.89453125 C-50.09067581 358.09649582 -50.48213287 357.29846039 -50.88545227 356.47624207 C-52.14356194 353.91698521 -53.41532179 351.36478801 -54.6875 348.8125 C-55.52629247 347.11177261 -56.3641937 345.41060536 -57.20117188 343.70898438 C-60.77277636 336.45866038 -64.38324628 329.22788421 -68 322 C-68.33 322 -68.66 322 -69 322 Z M-178 323 C-181.1386414 329.36937315 -184.27117495 335.74172245 -187.39941406 342.11621094 C-188.46505468 344.28585264 -189.53210866 346.45480073 -190.60058594 348.62304688 C-192.13325271 351.73387702 -193.66087351 354.84713958 -195.1875 357.9609375 C-195.90933472 359.42193375 -195.90933472 359.42193375 -196.64575195 360.91244507 C-197.0862085 361.81322784 -197.52666504 362.71401062 -197.98046875 363.64208984 C-198.37129639 364.43706879 -198.76212402 365.23204773 -199.16479492 366.05111694 C-200.13130238 367.95299848 -200.13130238 367.95299848 -200 370 C-177.0215718 378.10690983 -153.63592847 384.95776828 -129 384 C-131.33512754 379.86921333 -134.10429016 376.19453055 -137.0625 372.5 C-138.05529202 371.2491775 -139.04746667 369.99786475 -140.0390625 368.74609375 C-140.53696289 368.11815918 -141.03486328 367.49022461 -141.54785156 366.84326172 C-143.70580968 364.10409162 -145.82064891 361.33358824 -147.9375 358.5625 C-152.03346008 353.21159008 -156.21892278 347.93686085 -160.4465332 342.68945312 C-163.04292478 339.46316276 -165.61225142 336.22048902 -168.13671875 332.9375 C-168.63888916 332.2870874 -169.14105957 331.6366748 -169.65844727 330.96655273 C-170.61854549 329.72003932 -171.57367176 328.46967668 -172.52319336 327.21508789 C-173.63629768 325.77347848 -174.81259331 324.38105187 -176 323 C-176.66 323 -177.32 323 -178 323 Z " fill="#FE705A" transform="translate(410,98)"/>
<path d="M0 0 C1.15741998 0.95328541 2.31497463 1.90640734 3.47265625 2.859375 C16.81170897 13.95369793 28.75611473 25.97865684 39 40 C39.59288818 40.80969238 39.59288818 40.80969238 40.19775391 41.63574219 C59.0991103 67.68746508 71.95012656 96.60993148 78.9375 128.0625 C79.12481689 128.90409668 79.31213379 129.74569336 79.50512695 130.61279297 C82.50219847 145.23244898 83.41219713 160.04644386 83.375 174.9375 C83.37478851 175.73138123 83.37457703 176.52526245 83.37435913 177.34320068 C83.31801145 198.74196602 80.37908626 219.53687472 74 240 C73.75942871 240.7832666 73.51885742 241.5665332 73.27099609 242.37353516 C63.14448974 274.74579439 45.85204427 303.0869464 22.90234375 327.88671875 C21.54189882 329.39801384 20.24153032 330.96425603 18.984375 332.5625 C17.20449943 334.74880385 15.45851794 336.49940727 13.3125 338.3125 C11.21078026 340.10030167 9.12604591 341.88178303 7.11328125 343.76953125 C-23.92130502 372.73108033 -65.53179311 390.20662502 -107 397 C-108.18770996 397.19480957 -108.18770996 397.19480957 -109.39941406 397.39355469 C-130.72027365 400.67580862 -153.7157275 400.49107115 -175 397 C-175.88719727 396.8546582 -176.77439453 396.70931641 -177.68847656 396.55957031 C-220.39393355 389.22985673 -260.16670626 370.47715576 -291.93359375 340.9140625 C-293.80294483 339.18252748 -295.71979466 337.55491054 -297.6875 335.9375 C-300.85183346 333.2463379 -303.52556954 330.26450397 -306.20703125 327.09765625 C-307.36221688 325.74616456 -308.54563951 324.41806518 -309.76171875 323.12109375 C-321.43805083 310.61248642 -330.82550861 295.97523893 -339 281 C-339.35400879 280.35385742 -339.70801758 279.70771484 -340.07275391 279.04199219 C-367.51269798 228.28260245 -372.85960453 166.10444532 -356.83837891 110.92260742 C-348.4439359 83.41624656 -335.32490402 57.25712301 -317 35 C-316.236875 34.05253906 -315.47375 33.10507813 -314.6875 32.12890625 C-303.72434408 18.7001914 -291.53025057 6.46358759 -277.57128906 -3.83886719 C-276.1063201 -4.92143281 -274.65790829 -6.02630542 -273.2109375 -7.1328125 C-261.0382007 -16.28929593 -247.74883884 -23.51703812 -234 -30 C-232.89527344 -30.52335937 -231.79054687 -31.04671875 -230.65234375 -31.5859375 C-155.8907653 -65.26874639 -62.71510514 -52.74577886 0 0 Z M-292 18 C-292.52980469 18.50257324 -293.05960937 19.00514648 -293.60546875 19.52294922 C-301.90311459 27.42887128 -309.18967903 35.78603634 -316 45 C-316.63421875 45.85078125 -317.2684375 46.7015625 -317.921875 47.578125 C-335.54581453 71.99294031 -347.9414806 100.27198304 -354.25 129.6875 C-354.40098145 130.38584961 -354.55196289 131.08419922 -354.70751953 131.80371094 C-357.51812639 145.72682993 -358.37728238 159.46463684 -358.3125 173.625 C-358.31067719 174.45627411 -358.30885437 175.28754822 -358.30697632 176.14401245 C-358.25856361 189.29602721 -357.62681926 202.07791077 -355 215 C-354.83371094 215.8465918 -354.66742188 216.69318359 -354.49609375 217.56542969 C-350.61218315 236.81955686 -344.50698973 255.74773266 -335.07714844 273.01806641 C-333.92460047 275.13873377 -332.81001992 277.27719218 -331.6953125 279.41796875 C-326.41502283 289.40216716 -320.38706065 298.43805299 -313.36376953 307.27783203 C-312.17994162 308.77276975 -311.02299999 310.28892295 -309.87109375 311.80859375 C-298.88002887 325.93996289 -285.52233587 338.56483678 -271 349 C-270.07719238 349.67337402 -270.07719238 349.67337402 -269.13574219 350.36035156 C-222.42217627 384.27568025 -164.25308569 398.49440779 -107.18701172 389.55957031 C-69.87281384 383.41716416 -35.51756201 368.68794615 -6 345 C-4.98035156 344.18402344 -3.96070313 343.36804688 -2.91015625 342.52734375 C10.05515159 331.9510066 21.80033482 320.16933796 31.74121094 306.69873047 C32.96672711 305.04490162 34.21896464 303.41465656 35.4765625 301.78515625 C62.54399793 266.05828756 76.54295931 220.57169237 76.3125 176 C76.31034485 175.2419809 76.3081897 174.48396179 76.30596924 173.70297241 C76.04867171 116.89896517 54.48245948 63.83985345 15 23 C14.16855469 22.12859375 13.33710938 21.2571875 12.48046875 20.359375 C6.6878311 14.41165886 0.54102762 9.1065126 -6 4 C-7.38638672 2.90558594 -7.38638672 2.90558594 -8.80078125 1.7890625 C-83.08379694 -55.50636232 -185.87235413 -56.97706804 -292 18 Z " fill="#FE705A" transform="translate(428,100)"/>
</svg>
